0.11m3min_grf.mot
version=1
nRows=20
nColumns 19
inDegrees=yes
endheader
time	1_ground_force_vx	1_ground_force_vy	1_ground_force_vz	1_ground_force_px	1_ground_force_py	1_ground_force_pz	1_ground_torque_x	1_ground_torque_y	1_ground_torque_z	2_ground_force_vx	2_ground_force_vy	2_ground_force_vz	2_ground_force_px	2_ground_force_py	2_ground_force_pz	2_ground_torque_x	2_ground_torque_y	2_ground_torque_z
            0.005000	           -0.365423	           -1.624231	            0.406657	           -0.275441	            0.006145	           -0.388961	            0.020757	            0.037146	           -0.090665	           -3.868356	           -5.540498	            0.545079	           -0.366288	            0.005049	           -0.666171	            0.755689	           -1.270712	           -0.758881
            0.005500	           -0.503458	           -0.722340	            0.273295	           -0.275441	            0.006145	           -0.388961	           -0.105102	            0.073544	            0.016696	           -3.680915	           -5.540157	            0.638856	           -0.366288	            0.005049	           -0.666171	            0.812089	           -1.289212	           -0.815523
            0.006000	           -0.044687	           -0.722841	            0.409725	           -0.275441	            0.006145	           -0.388961	           -0.073470	            0.083170	           -0.001390	           -3.821527	           -5.540162	            0.498131	           -0.366288	            0.005049	           -0.666171	            0.887400	           -1.327021	           -0.740289
            0.006500	           -0.136828	           -0.722072	            0.226529	           -0.275441	            0.006145	           -0.388961	           -0.084447	           -0.083182	           -0.024784	           -4.290046	           -5.541686	            0.451402	           -0.366288	            0.005049	           -0.666171	            1.037504	           -1.279147	           -0.759035
            0.007000	           -0.273575	           -1.264076	            0.499687	           -0.275441	            0.006145	           -0.388961	           -0.114359	           -0.222295	            0.062840	           -4.429164	           -5.911327	            0.684789	           -0.366288	            0.005049	           -0.666171	            0.774748	           -1.346266	           -0.759159
            0.007500	           -0.090009	           -1.084168	            0.591717	           -0.275441	            0.006145	           -0.388961	            0.050244	           -0.156907	           -0.061063	           -4.239894	           -6.462091	            0.401169	           -0.366288	            0.005049	           -0.666171	            0.755962	           -1.346333	           -0.759151
            0.008000	           -0.228221	           -1.083015	            0.316922	           -0.275441	            0.006145	           -0.388961	           -0.012973	            0.018310	            0.009174	           -3.917220	           -4.988055	            0.500142	           -0.366288	            0.005049	           -0.666171	            0.812283	           -1.327494	           -0.683707
            0.008500	           -0.090512	           -1.443716	            0.360891	           -0.275441	            0.006145	           -0.388961	           -0.127371	            0.073893	           -0.003225	           -3.724524	           -6.460398	            0.447878	           -0.366288	            0.005049	           -0.666171	            0.924818	           -1.288940	           -0.777871
            0.009000	           -0.366256	           -0.181123	            0.183561	           -0.275441	            0.006145	           -0.388961	            0.011203	            0.064221	            0.059809	           -3.869644	           -5.172537	            0.640250	           -0.366288	            0.005049	           -0.666171	            0.849873	           -1.345860	           -0.796891
            0.009500	           -0.182233	           -0.002001	            0.459014	           -0.275441	            0.006145	           -0.388961	           -0.019569	           -0.018559	           -0.007850	           -4.056400	           -5.357194	            0.592744	           -0.366288	            0.005049	           -0.666171	            0.943611	           -1.288939	           -0.759028
            0.010000	            0.001255	           -1.263629	            0.407292	           -0.275441	            0.006145	           -0.388961	           -0.017003	           -0.092020	           -0.094298	           -3.824103	           -4.804238	            0.688472	           -0.366288	            0.005049	           -0.666171	            0.812062	           -1.270643	           -0.721205
            0.010500	           -0.273120	           -1.264862	            0.683111	           -0.275441	            0.006145	           -0.388961	           -0.066191	           -0.221715	           -0.068864	           -3.915185	           -5.540835	            0.592027	           -0.366288	            0.005049	           -0.666171	            0.755783	           -1.299003	           -0.777832
            0.011000	           -0.319565	           -1.083622	            0.454718	           -0.275441	            0.006145	           -0.388961	            0.018761	           -0.083480	            0.023547	           -3.772121	           -6.275749	            0.260843	           -0.366288	            0.005049	           -0.666171	            0.868486	           -1.289345	           -0.721296
            0.011500	           -0.273704	           -1.804479	            0.405656	           -0.275441	            0.006145	           -0.388961	           -0.091845	            0.046571	           -0.124025	           -3.824123	           -4.804071	            0.641544	           -0.366288	            0.005049	           -0.666171	            0.906109	           -1.307980	           -0.759080
            0.012000	           -0.319193	           -0.003011	            0.688635	           -0.275441	            0.006145	           -0.388961	           -0.104370	            0.064399	            0.024448	           -4.010899	           -4.988561	            0.547110	           -0.366288	            0.005049	           -0.666171	            0.868520	           -1.298798	           -0.721330
            0.012500	           -0.319598	           -0.903356	            0.455491	           -0.275441	            0.006145	           -0.388961	           -0.037703	            0.092134	            0.024434	           -4.057729	           -4.988897	            0.594058	           -0.366288	            0.005049	           -0.666171	            0.718383	           -1.346402	           -0.777985
            0.013000	           -0.090269	           -0.903509	            0.500778	           -0.275441	            0.006145	           -0.388961	           -0.077294	           -0.036932	           -0.022642	           -4.010338	           -5.171872	            0.311813	           -0.366288	            0.005049	           -0.666171	            0.830839	           -1.270508	           -0.740063
            0.013500	           -0.182150	           -1.083399	            0.408521	           -0.275441	            0.006145	           -0.388961	           -0.110715	           -0.111093	            0.010816	           -3.916494	           -5.172706	            0.640270	           -0.366288	            0.005049	           -0.666171	            0.868470	           -1.289210	           -0.758996
            0.014000	           -0.090988	            0.539403	            0.323538	           -0.275441	            0.006145	           -0.388961	            0.004527	           -0.175251	           -0.098682	           -4.099885	           -6.278440	            0.683335	           -0.366288	            0.005049	           -0.666171	            0.755946	           -1.346199	           -0.796851
            0.014500	           -0.181937	           -1.624393	            0.452058	           -0.275441	            0.006145	           -0.388961	           -0.074924	           -0.083112	           -0.045528	           -3.867609	           -5.725316	            0.732135	           -0.366288	            0.005049	           -0.666171	            0.793397	           -1.308387	           -0.759032
